<svg width="609" height="251" viewBox="0 0 609 251" fill="none" xmlns="http://www.w3.org/2000/svg">
<rect x="88" y="163" width="273" height="273" rx="136.5" fill="#765BFF"/>
<path fill-rule="evenodd" clip-rule="evenodd" d="M247.727 276.818C247.228 275.96 247.299 274.889 247.87 274.031L271.704 238.668C272.346 237.668 272.417 236.453 271.847 235.453C271.276 234.381 270.205 233.81 269.064 233.81H259.787C258.788 233.81 257.789 234.31 257.147 235.239L229.317 276.675C228.603 277.746 227.462 278.318 226.177 278.318H222.681C221.396 278.318 220.254 277.675 219.541 276.675L191.854 235.167C191.283 234.239 190.213 233.739 189.214 233.739H179.937C178.795 233.739 177.654 234.381 177.154 235.453C176.583 236.525 176.726 237.739 177.297 238.668L201.13 274.103C201.701 274.889 201.773 275.96 201.273 276.818C200.774 277.746 199.917 278.246 198.918 278.246H162.454C160.67 278.246 159.314 279.675 159.314 281.39V289.106C159.314 290.892 160.742 292.249 162.454 292.249H286.546C288.33 292.249 289.686 290.82 289.686 289.106V281.39C289.686 279.747 288.473 278.461 286.903 278.246C286.76 278.246 286.618 278.246 286.475 278.246H250.082C249.083 278.246 248.156 277.746 247.727 276.818ZM219.612 322.326L191.782 363.762C191.212 364.69 190.141 365.19 189.142 365.19H179.866C178.724 365.19 177.654 364.547 177.083 363.547C176.512 362.547 176.583 361.261 177.225 360.332L200.988 324.969C201.559 324.112 201.63 323.112 201.13 322.183C200.631 321.326 199.775 320.754 198.776 320.754H162.454C160.742 320.754 159.314 319.397 159.314 317.611V309.895C159.314 308.18 160.67 306.752 162.454 306.752H286.261C286.261 306.752 286.475 306.752 286.546 306.752C288.259 306.752 289.686 308.109 289.686 309.895V317.611C289.686 319.325 288.33 320.754 286.546 320.754H250.154C249.083 320.754 248.227 321.254 247.799 322.183C247.299 323.112 247.371 324.112 247.941 324.898L271.775 360.332C272.346 361.261 272.489 362.476 271.918 363.547C271.347 364.619 270.277 365.262 269.135 365.262H259.858C258.788 365.262 257.86 364.762 257.289 363.905L229.46 322.469C228.746 321.397 227.604 320.825 226.32 320.825H222.823C221.539 320.825 220.397 321.468 219.684 322.469L219.612 322.326Z" fill="white"/>
<path d="M644.101 4.00014C644.101 1.791 642.31 0.000129178 640.101 0.000128421L484.478 7.50538e-05C482.269 7.42963e-05 480.478 1.79092 480.478 4.00006L480.478 42.353C480.478 44.5622 478.687 46.353 476.478 46.353L391.556 46.3529C389.347 46.3529 387.556 48.1438 387.556 50.3529L387.556 338C387.556 340.209 389.347 342 391.556 342H640.101C642.31 342 644.101 340.209 644.101 338L644.101 4.00014Z" fill="#765BFF"/>
<path d="M314.001 92.0625C309.583 92.0628 306.001 95.6444 306.001 100.062V193.032C306.001 193.045 306 193.058 306 193.07V338.001C306 340.21 307.791 342.001 310 342.001H582.949C585.158 342.001 586.949 340.21 586.949 338.001V193.07C586.949 188.652 583.367 185.07 578.949 185.07H540.941C538.732 185.07 536.941 183.279 536.941 181.07V100.062C536.941 95.6442 533.36 92.0625 528.941 92.0625H314.001Z" fill="#FC6432"/>
<rect x="-112" y="92.0002" width="273" height="273" rx="136.5" fill="#FC6432"/>
<path fill-rule="evenodd" clip-rule="evenodd" d="M47.7274 205.818C47.2279 204.96 47.2992 203.889 47.8701 203.031L71.7038 167.668C72.346 166.668 72.4174 165.453 71.8465 164.453C71.2756 163.381 70.2053 162.81 69.0635 162.81H59.7869C58.7879 162.81 57.7889 163.31 57.1467 164.239L29.317 205.675C28.6034 206.746 27.4616 207.318 26.1772 207.318H22.6806C21.3962 207.318 20.2544 206.675 19.5409 205.675L-8.14616 164.167C-8.71703 163.239 -9.7874 162.739 -10.7864 162.739H-20.063C-21.2047 162.739 -22.3465 163.381 -22.846 164.453C-23.4168 165.525 -23.2741 166.739 -22.7033 167.668L1.13042 203.103C1.70129 203.889 1.77264 204.96 1.27314 205.818C0.773628 206.746 -0.0826721 207.246 -1.08169 207.246H-37.5458C-39.3297 207.246 -40.6855 208.675 -40.6855 210.39V218.106C-40.6855 219.892 -39.2584 221.249 -37.5458 221.249H86.5463C88.3303 221.249 89.6861 219.82 89.6861 218.106V210.39C89.6861 208.747 88.473 207.461 86.9031 207.246C86.7604 207.246 86.6177 207.246 86.4749 207.246H50.0822C49.0832 207.246 48.1555 206.746 47.7274 205.818ZM19.6122 251.326L-8.21752 292.762C-8.78838 293.69 -9.85876 294.19 -10.8578 294.19H-20.1344C-21.2761 294.19 -22.3465 293.547 -22.9173 292.547C-23.4882 291.547 -23.4168 290.261 -22.7746 289.332L0.987705 253.969C1.55857 253.112 1.62993 252.112 1.13042 251.183C0.630913 250.326 -0.225388 249.754 -1.2244 249.754H-37.5458C-39.2584 249.754 -40.6855 248.397 -40.6855 246.611V238.895C-40.6855 237.18 -39.3297 235.752 -37.5458 235.752H86.2609C86.2609 235.752 86.475 235.752 86.5463 235.752C88.2589 235.752 89.6861 237.109 89.6861 238.895V246.611C89.6861 248.325 88.3303 249.754 86.5463 249.754H50.1536C49.0832 249.754 48.2269 250.254 47.7987 251.183C47.2992 252.112 47.3706 253.112 47.9415 253.898L71.7751 289.332C72.346 290.261 72.4887 291.476 71.9179 292.547C71.347 293.619 70.2766 294.262 69.1349 294.262H59.8583C58.7879 294.262 57.8603 293.762 57.2894 292.905L29.4597 251.469C28.7461 250.397 27.6044 249.825 26.3199 249.825H22.8233C21.5389 249.825 20.3972 250.468 19.6836 251.469L19.6122 251.326Z" fill="white"/>
</svg>
