<svg width="56" height="50" viewBox="0 0 56 50" fill="none" xmlns="http://www.w3.org/2000/svg">
<path d="M46.9443 0V2.1543C46.9453 2.18128 46.9482 2.20825 46.9482 2.23535C46.9482 2.26203 46.9453 2.28886 46.9443 2.31543V4.4541H44.9727C44.8868 4.46417 44.8002 4.47167 44.7129 4.47168H6.70703C6.11411 4.47168 5.54524 4.70672 5.12598 5.12598C4.70672 5.54524 4.47168 6.11411 4.47168 6.70703C4.47172 7.2999 4.70675 7.86886 5.12598 8.28809C5.54522 8.70725 6.11418 8.94238 6.70703 8.94238H18.5566V8.94141H55.8867V13.2656C55.8884 13.3149 55.8906 13.3646 55.8906 13.4141V44.7129C55.8906 44.7621 55.8883 44.8113 55.8867 44.8604V49.1846L18.5566 49.1836H6.70703C4.92844 49.1836 3.22259 48.4773 1.96484 47.2197C0.70706 45.9619 0 44.2553 0 42.4766V6.70703C0 4.92826 0.70706 3.22263 1.96484 1.96484C3.22263 0.70706 4.92826 0 6.70703 0H46.9443ZM42.6426 24.8467C42.0299 24.5929 41.3555 24.5269 40.7051 24.6562C40.0546 24.7856 39.4572 25.1053 38.9883 25.5742C38.5193 26.0432 38.1997 26.6406 38.0703 27.291C37.9409 27.9415 38.007 28.6158 38.2607 29.2285C38.5145 29.8413 38.9446 30.3649 39.4961 30.7334C40.0476 31.1019 40.6961 31.2988 41.3594 31.2988C42.2487 31.2988 43.1016 30.9452 43.7305 30.3164C44.3593 29.6875 44.7129 28.8346 44.7129 27.9453C44.7129 27.2821 44.5159 26.6335 44.1475 26.082C43.779 25.5306 43.2553 25.1005 42.6426 24.8467Z" fill="#FD9D41"/>
</svg>
