<svg width="178" height="200" viewBox="0 0 178 200" fill="none" xmlns="http://www.w3.org/2000/svg">
<path d="M95 62C95 62 102.111 84.463 112.324 94.6759C122.537 104.889 145 112 145 112C145 112 122.537 119.111 112.324 129.324C102.111 139.537 95 162 95 162C95 162 87.8888 139.537 77.6759 129.324C67.463 119.111 45 112 45 112C45 112 67.463 104.889 77.6759 94.6759C87.8888 84.463 95 62 95 62Z" fill="#765BFF"/>
<path d="M99.29 60.6406V60.6416C99.2904 60.6428 99.2909 60.6452 99.292 60.6484C99.2944 60.656 99.2989 60.6694 99.3047 60.6875C99.3163 60.7237 99.3344 60.781 99.3594 60.8574C99.4094 61.0107 99.4868 61.2422 99.5889 61.5439C99.7931 62.148 100.098 63.0321 100.498 64.1279C101.299 66.3231 102.47 69.3524 103.946 72.6846C106.967 79.5001 111.024 87.0122 115.506 91.4941C119.988 95.9761 127.5 100.033 134.315 103.054C137.648 104.53 140.677 105.701 142.872 106.502C143.968 106.902 144.852 107.207 145.456 107.411C145.758 107.513 145.989 107.591 146.143 107.641C146.219 107.666 146.276 107.684 146.312 107.695C146.331 107.701 146.344 107.706 146.352 107.708C146.355 107.709 146.357 107.71 146.358 107.71L159.91 112L146.358 116.289V116.29C146.357 116.29 146.355 116.291 146.352 116.292C146.344 116.294 146.331 116.299 146.312 116.305C146.276 116.316 146.219 116.334 146.143 116.359C145.989 116.409 145.758 116.487 145.456 116.589C144.852 116.793 143.968 117.098 142.872 117.498C140.677 118.299 137.648 119.47 134.315 120.946C127.5 123.967 119.988 128.024 115.506 132.506C111.024 136.988 106.967 144.5 103.946 151.315C102.47 154.648 101.299 157.677 100.498 159.872C100.098 160.968 99.7931 161.852 99.5889 162.456C99.4868 162.758 99.4094 162.989 99.3594 163.143C99.3344 163.219 99.3163 163.276 99.3047 163.312C99.2989 163.331 99.2944 163.344 99.292 163.352C99.2909 163.355 99.2904 163.357 99.29 163.358L95 176.91L90.71 163.358C90.7096 163.357 90.7091 163.355 90.708 163.352C90.7056 163.344 90.7011 163.331 90.6953 163.312C90.6837 163.276 90.6656 163.219 90.6406 163.143C90.5906 162.989 90.5132 162.758 90.4111 162.456C90.2069 161.852 89.9016 160.968 89.502 159.872C88.7014 157.677 87.5304 154.648 86.0537 151.315C83.0334 144.5 78.9761 136.988 74.4941 132.506C70.0122 128.024 62.5001 123.967 55.6846 120.946C52.3524 119.47 49.3231 118.299 47.1279 117.498C46.0321 117.098 45.148 116.793 44.5439 116.589C44.2422 116.487 44.0107 116.409 43.8574 116.359C43.781 116.334 43.7237 116.316 43.6875 116.305C43.6694 116.299 43.656 116.294 43.6484 116.292C43.6452 116.291 43.6428 116.29 43.6416 116.29V116.289L30.0898 112L43.6416 107.71C43.6428 107.71 43.6452 107.709 43.6484 107.708C43.656 107.706 43.6694 107.701 43.6875 107.695C43.7237 107.684 43.781 107.666 43.8574 107.641C44.0107 107.591 44.2422 107.513 44.5439 107.411C45.148 107.207 46.0321 106.902 47.1279 106.502C49.3231 105.701 52.3524 104.53 55.6846 103.054C62.5001 100.033 70.0122 95.9761 74.4941 91.4941C78.9761 87.0122 83.0334 79.5001 86.0537 72.6846C87.5304 69.3524 88.7014 66.3231 89.502 64.1279C89.9016 63.0321 90.2069 62.148 90.4111 61.5439C90.5132 61.2422 90.5906 61.0107 90.6406 60.8574C90.6656 60.781 90.6837 60.7237 90.6953 60.6875C90.7011 60.6694 90.7056 60.656 90.708 60.6484C90.7091 60.6452 90.7096 60.6428 90.71 60.6416V60.6406L95 47.0898L99.29 60.6406Z" stroke="#765BFF" stroke-opacity="0.5" stroke-width="9"/>
<path d="M44.5 22C44.5 22 47.2734 30.7606 51.2564 34.7436C55.2394 38.7266 64 41.5 64 41.5C64 41.5 55.2394 44.2734 51.2564 48.2564C47.2734 52.2394 44.5 61 44.5 61C44.5 61 41.7266 52.2394 37.7436 48.2564C33.7606 44.2734 25 41.5 25 41.5C25 41.5 33.7606 38.7266 37.7436 34.7436C41.7266 30.7606 44.5 22 44.5 22Z" fill="#FC6432"/>
<path d="M45.9297 21.5469C45.9299 21.5474 45.9302 21.5492 45.9307 21.5508C45.9317 21.5539 45.9342 21.5593 45.9365 21.5664C45.9412 21.5809 45.9482 21.6038 45.958 21.6338C45.9778 21.6943 46.0078 21.7859 46.0479 21.9043C46.1281 22.1415 46.2478 22.4879 46.4043 22.917C46.718 23.7771 47.1771 24.9644 47.7559 26.2705C48.9357 28.9329 50.534 31.8993 52.3174 33.6826C54.1007 35.466 57.0671 37.0643 59.7295 38.2441C61.0356 38.8229 62.2229 39.282 63.083 39.5957C63.5121 39.7522 63.8585 39.8719 64.0957 39.9521C64.2141 39.9922 64.3057 40.0222 64.3662 40.042C64.3962 40.0518 64.4191 40.0588 64.4336 40.0635C64.4407 40.0658 64.4461 40.0683 64.4492 40.0693C64.4508 40.0698 64.4526 40.0701 64.4531 40.0703L68.9697 41.5L64.4531 42.9297C64.4526 42.9299 64.4508 42.9302 64.4492 42.9307C64.4461 42.9317 64.4407 42.9342 64.4336 42.9365C64.4191 42.9412 64.3962 42.9482 64.3662 42.958C64.3057 42.9778 64.2141 43.0078 64.0957 43.0479C63.8585 43.1281 63.5121 43.2478 63.083 43.4043C62.2229 43.718 61.0356 44.1771 59.7295 44.7559C57.0671 45.9357 54.1007 47.534 52.3174 49.3174C50.534 51.1007 48.9357 54.0671 47.7559 56.7295C47.1771 58.0356 46.718 59.2229 46.4043 60.083C46.2478 60.5121 46.1281 60.8585 46.0479 61.0957C46.0078 61.2141 45.9778 61.3057 45.958 61.3662C45.9482 61.3962 45.9412 61.4191 45.9365 61.4336C45.9342 61.4407 45.9317 61.4461 45.9307 61.4492C45.9302 61.4508 45.9299 61.4526 45.9297 61.4531L44.5 65.9697L43.0703 61.4531C43.0701 61.4526 43.0698 61.4508 43.0693 61.4492C43.0683 61.4461 43.0658 61.4407 43.0635 61.4336C43.0588 61.4191 43.0518 61.3962 43.042 61.3662C43.0222 61.3057 42.9922 61.2141 42.9521 61.0957C42.8719 60.8585 42.7522 60.5121 42.5957 60.083C42.282 59.2229 41.8229 58.0356 41.2441 56.7295C40.0643 54.0671 38.466 51.1007 36.6826 49.3174C34.8993 47.534 31.9329 45.9357 29.2705 44.7559C27.9644 44.1771 26.7771 43.718 25.917 43.4043C25.4879 43.2478 25.1415 43.1281 24.9043 43.0479C24.7859 43.0078 24.6943 42.9778 24.6338 42.958C24.6038 42.9482 24.5809 42.9412 24.5664 42.9365C24.5593 42.9342 24.5539 42.9317 24.5508 42.9307C24.5492 42.9302 24.5474 42.9299 24.5469 42.9297L20.0303 41.5L24.5469 40.0703C24.5474 40.0701 24.5492 40.0698 24.5508 40.0693C24.5539 40.0683 24.5593 40.0658 24.5664 40.0635C24.5809 40.0588 24.6038 40.0518 24.6338 40.042C24.6943 40.0222 24.7859 39.9922 24.9043 39.9521C25.1415 39.8719 25.4879 39.7522 25.917 39.5957C26.7771 39.282 27.9644 38.8229 29.2705 38.2441C31.9329 37.0643 34.8993 35.466 36.6826 33.6826C38.466 31.8993 40.0643 28.9329 41.2441 26.2705C41.8229 24.9644 42.282 23.7771 42.5957 22.917C42.7522 22.4879 42.8719 22.1415 42.9521 21.9043C42.9922 21.7859 43.0222 21.6943 43.042 21.6338C43.0518 21.6038 43.0588 21.5809 43.0635 21.5664C43.0658 21.5593 43.0683 21.5539 43.0693 21.5508C43.0698 21.5492 43.0701 21.5474 43.0703 21.5469L44.5 17.0303L45.9297 21.5469Z" stroke="#FC6432" stroke-opacity="0.5" stroke-width="3"/>
</svg>
