<svg width="242" height="222" viewBox="0 0 242 222" fill="none" xmlns="http://www.w3.org/2000/svg">
<g clip-path="url(#clip0_18_505)">
<path d="M57.9025 114.1L93.7184 121.488C98.157 122.404 101.013 126.744 100.097 131.183L92.7094 166.999C91.7938 171.438 87.4533 174.294 83.0147 173.378L47.1988 165.99C42.7602 165.074 39.9042 160.734 40.8198 156.295L48.2078 120.479C49.1234 116.04 53.4639 113.185 57.9025 114.1Z" stroke="#765BFF" stroke-width="2" stroke-linecap="round" stroke-linejoin="round"/>
</g>
<g clip-path="url(#clip1_18_505)">
<path d="M86.85 78.1701L137.94 88.7092C144.272 90.0153 148.346 96.2069 147.04 102.538L136.501 153.629C135.195 159.96 129.003 164.034 122.672 162.728L71.5816 152.189C65.25 150.883 61.176 144.691 62.482 138.36L73.0208 87.2696C74.3269 80.938 80.5184 76.864 86.85 78.1701Z" stroke="#765BFF" stroke-width="2" stroke-linecap="round" stroke-linejoin="round"/>
</g>
<g clip-path="url(#clip2_18_505)">
<path d="M129.453 43.611L187.391 55.5626C194.571 57.0437 199.191 64.0651 197.71 71.2453L185.759 129.183C184.277 136.363 177.256 140.983 170.076 139.502L112.138 127.55C104.958 126.069 100.338 119.048 101.819 111.867L113.771 53.93C115.252 46.7498 122.273 42.1299 129.453 43.611Z" stroke="#765BFF" stroke-width="2" stroke-linecap="round" stroke-linejoin="round"/>
</g>
<defs>
<clipPath id="clip0_18_505">
<rect width="81.7208" height="81.7203" fill="white" transform="matrix(-0.549671 -0.835381 -0.835381 0.549671 127.059 155.409)"/>
</clipPath>
<clipPath id="clip1_18_505">
<rect width="116.572" height="116.572" fill="white" transform="matrix(-0.549671 -0.835381 -0.835381 0.549671 185.5 137.095)"/>
</clipPath>
<clipPath id="clip2_18_505">
<rect width="132.195" height="132.195" fill="white" transform="matrix(-0.549671 -0.835381 -0.835381 0.549671 241.325 110.434)"/>
</clipPath>
</defs>
</svg>
