<svg width="111" height="111" viewBox="0 0 111 111" fill="none" xmlns="http://www.w3.org/2000/svg">
<path d="M55.5 24C55.5 24 59.98 38.1517 66.4142 44.5858C72.8483 51.02 87 55.5 87 55.5C87 55.5 72.8483 59.98 66.4142 66.4142C59.98 72.8483 55.5 87 55.5 87C55.5 87 51.02 72.8483 44.5858 66.4142C38.1517 59.98 24 55.5 24 55.5C24 55.5 38.1517 51.02 44.5858 44.5858C51.02 38.1517 55.5 24 55.5 24Z" fill="#FC6432"/>
<path d="M58.8369 22.9424C58.8371 22.9428 58.8372 22.9442 58.8379 22.9463C58.8393 22.9506 58.8412 22.9588 58.8447 22.9697C58.8518 22.9916 58.8635 23.0262 58.8789 23.0732C58.9098 23.1677 58.957 23.312 59.0205 23.5C59.1477 23.8761 59.3391 24.4275 59.5889 25.1123C60.0895 26.4849 60.8212 28.3794 61.7441 30.4619C63.6419 34.7443 66.1573 39.38 68.8887 42.1113C71.62 44.8427 76.2557 47.3581 80.5381 49.2559C82.6206 50.1788 84.5151 50.9105 85.8877 51.4111C86.5725 51.6609 87.1239 51.8523 87.5 51.9795C87.688 52.043 87.8323 52.0902 87.9268 52.1211C87.9738 52.1365 88.0084 52.1482 88.0303 52.1553C88.0412 52.1588 88.0494 52.1607 88.0537 52.1621L88.0576 52.1631L98.5967 55.5L88.0576 58.8359C88.0572 58.8361 88.0558 58.8372 88.0537 58.8379C88.0494 58.8393 88.0412 58.8412 88.0303 58.8447C88.0084 58.8518 87.9738 58.8635 87.9268 58.8789C87.8323 58.9098 87.688 58.957 87.5 59.0205C87.1239 59.1477 86.5725 59.3391 85.8877 59.5889C84.5151 60.0895 82.6206 60.8212 80.5381 61.7441C76.2557 63.6419 71.62 66.1573 68.8887 68.8887C66.1573 71.62 63.6419 76.2557 61.7441 80.5381C60.8212 82.6206 60.0895 84.5151 59.5889 85.8877C59.3391 86.5725 59.1477 87.1239 59.0205 87.5C58.957 87.688 58.9098 87.8323 58.8789 87.9268C58.8635 87.9738 58.8518 88.0084 58.8447 88.0303C58.8412 88.0412 58.8393 88.0494 58.8379 88.0537C58.8372 88.0558 58.8371 88.0572 58.8369 88.0576L55.5 98.5967L52.1631 88.0566H52.1621C52.1619 88.056 52.1625 88.0548 52.1621 88.0537C52.1607 88.0494 52.1588 88.0412 52.1553 88.0303C52.1482 88.0084 52.1365 87.9738 52.1211 87.9268C52.0902 87.8323 52.043 87.688 51.9795 87.5C51.8523 87.1239 51.6609 86.5725 51.4111 85.8877C50.9105 84.5151 50.1788 82.6206 49.2559 80.5381C47.3581 76.2557 44.8427 71.62 42.1113 68.8887C39.38 66.1573 34.7443 63.6419 30.4619 61.7441C28.3794 60.8212 26.4849 60.0895 25.1123 59.5889C24.4275 59.3391 23.8761 59.1477 23.5 59.0205C23.312 58.957 23.1677 58.9098 23.0732 58.8789C23.0262 58.8635 22.9916 58.8518 22.9697 58.8447C22.9588 58.8412 22.9506 58.8393 22.9463 58.8379C22.9442 58.8372 22.9428 58.8371 22.9424 58.8369V58.8359L12.4033 55.5L22.9424 52.1631C22.9428 52.1629 22.9442 52.1628 22.9463 52.1621C22.9506 52.1607 22.9588 52.1588 22.9697 52.1553C22.9916 52.1482 23.0262 52.1365 23.0732 52.1211C23.1677 52.0902 23.312 52.043 23.5 51.9795C23.8761 51.8523 24.4275 51.6609 25.1123 51.4111C26.4849 50.9105 28.3794 50.1788 30.4619 49.2559C34.7443 47.3581 39.38 44.8427 42.1113 42.1113C44.8427 39.38 47.3581 34.7443 49.2559 30.4619C50.1788 28.3794 50.9105 26.4849 51.4111 25.1123C51.6609 24.4275 51.8523 23.8761 51.9795 23.5C52.043 23.312 52.0902 23.1677 52.1211 23.0732C52.1365 23.0262 52.1482 22.9916 52.1553 22.9697C52.1588 22.9588 52.1607 22.9506 52.1621 22.9463L52.1631 22.9424L55.5 12.4033L58.8369 22.9424Z" stroke="#765BFF" stroke-opacity="0.5" stroke-width="7"/>
</svg>
