<svg width="200" height="200" viewBox="0 0 200 200" fill="none" xmlns="http://www.w3.org/2000/svg">
<g clip-path="url(#clip0_67_229)">
<g filter="url(#filter0_dd_67_229)">
<path d="M99.4014 24.6602C99.957 24.3876 100.607 24.3875 101.163 24.6602L133.97 40.7598L151.225 50.9717L155.556 53.5342L159.886 56.0967L166.182 59.8223C166.894 60.2437 167.272 61.0601 167.135 61.876L154.868 134.586C154.783 135.093 154.505 135.549 154.093 135.856L101.479 175.112C100.769 175.642 99.7954 175.642 99.0859 175.112L46.4717 135.856C46.0592 135.549 45.7809 135.093 45.6953 134.586L33.4287 61.876C33.2911 61.0601 33.6707 60.2437 34.3828 59.8223L40.6787 56.0967L49.3389 50.9717L66.5879 40.7627L99.4014 24.6602Z" stroke="#FC6432" stroke-width="4" shape-rendering="crispEdges"/>
</g>
<path d="M98.6826 33.7568C99.5138 33.3506 100.486 33.3506 101.317 33.7568L129.519 47.542L144.492 56.3682L148.242 58.5781L151.992 60.7891L157.12 63.8115C158.191 64.4432 158.761 65.6703 158.554 66.8965L148.032 129.019C147.903 129.781 147.485 130.465 146.864 130.926L101.789 164.424C100.727 165.213 99.2733 165.213 98.2109 164.424L53.1357 130.926C52.5152 130.465 52.0969 129.781 51.9678 129.019L41.4463 66.8965C41.2386 65.6703 41.8086 64.4432 42.8799 63.8115L48.0078 60.7891L51.7578 58.5781L55.5078 56.3682L70.4805 47.542L98.6826 33.7568Z" fill="#FFF0EB" stroke="#FD9D41" stroke-width="2"/>
<path fill-rule="evenodd" clip-rule="evenodd" d="M100.113 65.0984C101.089 65.5211 104.991 67.2466 107.355 68.8425C109.745 70.4563 113.012 73.589 113.012 73.589C113.012 73.589 113.723 74.9564 114.144 75.8493C116.321 80.4713 116.384 83.5119 118.217 88.2808C118.729 89.6122 119.017 90.3586 119.575 91.6712C120.133 92.9838 122.291 96.8699 123.422 99.5822C124.554 102.295 124.303 101.462 124.327 102.747C124.346 103.733 124.285 104.335 123.875 105.233C123.61 105.812 122.969 106.589 122.969 106.589C122.969 106.589 124.274 107.796 125.232 108.397C126.304 109.069 126.996 109.292 128.174 109.753C129.215 110.161 129.99 109.995 130.89 110.658C131.546 111.141 131.636 111.702 132.248 112.24C133.228 113.1 134.181 112.995 135.19 113.822C136.012 114.496 137 115.856 137 115.856C137 115.856 132.927 118.45 130.211 119.925C125.938 122.245 123.42 123.34 118.896 125.123C114.527 126.845 111.969 127.601 107.509 128.92L107.355 128.966C104.841 129.709 101.069 130.693 100.113 130.941V131C100.113 131 100.074 130.99 100 130.97C99.9262 130.99 99.8868 131 99.8868 131V130.941C98.931 130.693 95.1595 129.709 92.6453 128.966L92.4906 128.92C88.0312 127.601 85.4731 126.845 81.104 125.123C76.5795 123.34 74.0622 122.245 69.789 119.925C67.0726 118.45 63 115.856 63 115.856C63 115.856 63.9876 114.496 64.8104 113.822C65.8192 112.995 66.7722 113.1 67.7523 112.24C68.3643 111.702 68.4543 111.141 69.1101 110.658C70.0098 109.995 70.7849 110.161 71.8257 109.753C73.0037 109.292 73.6958 109.069 74.7676 108.397C75.7263 107.796 77.0306 106.589 77.0306 106.589C77.0306 106.589 76.3902 105.812 76.1254 105.233C75.7148 104.335 75.6544 103.733 75.6728 102.747C75.6967 101.462 75.4465 102.295 76.578 99.5822C77.7095 96.8699 79.8671 92.9838 80.4251 91.6712C80.9831 90.3586 81.2712 89.6122 81.7829 88.2808C83.6156 83.5119 83.6786 80.4713 85.8563 75.8493C86.277 74.9564 86.9878 73.589 86.9878 73.589C86.9878 73.589 90.2546 70.4563 92.6453 68.8425C95.0093 67.2466 98.9107 65.5211 99.8868 65.0984V65C99.8868 65 99.9261 65.0173 100 65.049C100.074 65.0173 100.113 65 100.113 65V65.0984ZM100 77.5361C99.0023 77.8668 97.0565 78.7041 95.1346 80.1438C92.9621 81.7712 90.6086 83.9863 89.7034 84.8904C90.0051 83.7603 90.6086 81.3644 90.6086 80.8219C90.6086 80.1438 87.893 86.9247 85.63 89.411C83.367 91.8973 77.9358 99.8082 78.1621 102.295C78.3884 104.781 77.7095 104.329 79.9725 108.849C81.1794 110.432 84.0006 113.867 85.63 114.952C87.6095 116.27 95.7887 122.499 96.8694 123.47C93.2207 120.055 85.8035 113.184 84.7248 112.466C83.367 111.562 79.9725 105.459 79.9725 102.973C80.8777 100.411 83.2765 94.7 85.63 92.3493C86.8369 90.5411 89.8391 86.5178 92.1927 84.8904C93.2745 83.5937 96.5913 80.8521 99.8868 79.8238V79.7549C99.9247 79.7658 99.9622 79.778 100 79.7893C100.038 79.778 100.075 79.7658 100.113 79.7549V79.8238C103.409 80.8521 106.725 83.5937 107.807 84.8904C110.161 86.5178 113.163 90.5411 114.37 92.3493C116.724 94.7 119.122 100.411 120.028 102.973C120.028 105.459 116.633 111.562 115.275 112.466C114.196 113.184 106.779 120.055 103.131 123.47C104.211 122.499 112.39 116.27 114.37 114.952C115.999 113.867 118.821 110.432 120.028 108.849C122.291 104.329 121.612 104.781 121.838 102.295C122.064 99.8082 116.633 91.8973 114.37 89.411C112.107 86.9247 109.391 80.1438 109.391 80.8219C109.391 81.3644 109.995 83.7603 110.297 84.8904C109.391 83.9863 107.038 81.7712 104.865 80.1438C102.944 78.7041 100.998 77.8668 100 77.5361ZM76.578 110.205C76.6534 111.562 77.0758 114.41 78.1621 114.952C79.5199 115.63 86.0826 119.699 87.6667 119.699C85.1019 117.89 81.8787 116.448 79.0673 113.37C78.0068 112.209 77.106 110.959 76.578 110.205ZM123.422 110.205C122.894 110.959 121.993 112.209 120.933 113.37C118.121 116.448 114.898 117.89 112.333 119.699C113.917 119.699 120.48 115.63 121.838 114.952C122.924 114.41 123.347 111.562 123.422 110.205ZM69.1101 113.37C71.2977 114.952 75.9896 118.071 77.2569 117.89C75.0693 116.534 70.6037 113.46 70.2416 112.014L69.1101 113.37ZM129.758 112.014C129.396 113.46 124.931 116.534 122.743 117.89C124.01 118.071 128.702 114.952 130.89 113.37L129.758 112.014ZM91.7401 90.3151C91.2285 90.1757 90.3823 90.3151 90.3823 90.3151C90.3823 90.3151 90.39 91.3125 90.6086 91.8973C90.8744 92.6086 91.193 92.9522 91.7401 93.4795C92.5369 94.2475 93.1459 94.6073 94.2294 94.8356C95.0076 94.9996 95.5129 95.0911 96.2661 94.8356C96.8695 94.6309 97.6239 93.9315 97.6239 93.9315C97.6239 93.9315 96.5028 93.4137 95.8135 93.0274C94.7018 92.4046 94.1584 91.9253 93.0979 91.2192C92.5676 90.8661 92.3549 90.4825 91.7401 90.3151ZM109.618 90.3151C109.618 90.3151 108.772 90.1757 108.26 90.3151C107.645 90.4825 107.432 90.8661 106.902 91.2192C105.842 91.9253 105.298 92.4046 104.187 93.0274C103.497 93.4137 102.376 93.9315 102.376 93.9315C102.376 93.9315 103.131 94.6309 103.734 94.8356C104.487 95.0911 104.992 94.9996 105.771 94.8356C106.854 94.6073 107.463 94.2475 108.26 93.4795C108.807 92.9522 109.126 92.6086 109.391 91.8973C109.61 91.3125 109.618 90.3151 109.618 90.3151Z" fill="#FC6432"/>
</g>
<defs>
<filter id="filter0_dd_67_229" x="4.30137" y="-4.64431" width="191.962" height="209.254" filterUnits="userSpaceOnUse" color-interpolation-filters="sRGB">
<feFlood flood-opacity="0" result="BackgroundImageFix"/>
<feColorMatrix in="SourceAlpha" type="matrix" values="0 0 0 0 0 0 0 0 0 0 0 0 0 0 0 0 0 0 127 0" result="hardAlpha"/>
<feOffset/>
<feGaussianBlur stdDeviation="5.45"/>
<feComposite in2="hardAlpha" operator="out"/>
<feColorMatrix type="matrix" values="0 0 0 0 1 0 0 0 0 0.864699 0 0 0 0 0.820192 0 0 0 1 0"/>
<feBlend mode="normal" in2="BackgroundImageFix" result="effect1_dropShadow_67_229"/>
<feColorMatrix in="SourceAlpha" type="matrix" values="0 0 0 0 0 0 0 0 0 0 0 0 0 0 0 0 0 0 127 0" result="hardAlpha"/>
<feOffset/>
<feGaussianBlur stdDeviation="13.55"/>
<feComposite in2="hardAlpha" operator="out"/>
<feColorMatrix type="matrix" values="0 0 0 0 1 0 0 0 0 0.439261 0 0 0 0 0.254808 0 0 0 1 0"/>
<feBlend mode="normal" in2="effect1_dropShadow_67_229" result="effect2_dropShadow_67_229"/>
<feBlend mode="normal" in="SourceGraphic" in2="effect2_dropShadow_67_229" result="shape"/>
</filter>
<clipPath id="clip0_67_229">
<rect width="200" height="200" fill="white"/>
</clipPath>
</defs>
</svg>
