<svg width="200" height="200" viewBox="0 0 200 200" fill="none" xmlns="http://www.w3.org/2000/svg">
<g clip-path="url(#clip0_67_245)">
<g filter="url(#filter0_dd_67_245)">
<path d="M99.4014 24.6602C99.957 24.3876 100.607 24.3875 101.163 24.6602L133.97 40.7598L151.225 50.9717L155.556 53.5342L159.886 56.0967L166.182 59.8223C166.894 60.2437 167.272 61.0601 167.135 61.876L154.868 134.586C154.783 135.093 154.505 135.549 154.093 135.856L101.479 175.112C100.769 175.642 99.7954 175.642 99.0859 175.112L46.4717 135.856C46.0592 135.549 45.7809 135.093 45.6953 134.586L33.4287 61.876C33.2911 61.0601 33.6707 60.2437 34.3828 59.8223L40.6787 56.0967L49.3389 50.9717L66.5879 40.7627L99.4014 24.6602Z" stroke="#FC6432" stroke-width="4" shape-rendering="crispEdges"/>
</g>
<path d="M98.6826 33.7568C99.5138 33.3506 100.486 33.3506 101.317 33.7568L129.519 47.542L144.492 56.3682L148.242 58.5781L151.992 60.7891L157.12 63.8115C158.191 64.4432 158.761 65.6703 158.554 66.8965L148.032 129.019C147.903 129.781 147.485 130.465 146.864 130.926L101.789 164.424C100.727 165.213 99.2733 165.213 98.2109 164.424L53.1357 130.926C52.5152 130.465 52.0969 129.781 51.9678 129.019L41.4463 66.8965C41.2386 65.6703 41.8086 64.4432 42.8799 63.8115L48.0078 60.7891L51.7578 58.5781L55.5078 56.3682L70.4805 47.542L98.6826 33.7568Z" fill="#FFF0EB" stroke="#FD9D41" stroke-width="2"/>
<path d="M127.761 91.0716L122.166 75.5067C123.338 72.3318 124.48 71.0683 125.068 70.5933C125.505 70.2396 125.886 70.1056 126.198 70.1926C126.769 70.3537 127.41 71.2551 127.894 72.6013C129.45 76.9269 129.327 84.6195 127.761 91.0713V91.0716ZM82.9788 88.6016L126.175 93.4092L120.124 76.5605L84.7485 72.6227C85.1066 77.6044 84.4843 83.6499 82.9785 88.6014L82.9788 88.6016ZM82.4591 72.3688L76.2366 71.6761L81.3502 85.9061C82.4236 81.4821 82.8175 76.4733 82.4591 72.3688ZM78.6588 65.4265C78.135 65.8543 77.1715 66.8983 76.1385 69.3684L120.194 74.2731C120.93 72.3833 121.764 70.8644 122.663 69.7891L79.6718 65.0043C79.3165 64.9643 78.924 65.2126 78.6585 65.4265H78.6588ZM117.412 104.524L117.497 127.893L126.66 120.493L126.575 97.1243L117.412 104.524ZM115.213 129L71.0856 124.088L71 100.091L115.129 105.002L115.213 129ZM94.5764 108.267C94.809 108.143 95.0005 107.955 95.1273 107.724C95.2541 107.494 95.3107 107.231 95.2901 106.969C95.2559 106.09 94.5494 105.3 93.7117 105.195H93.6944C92.8465 105.099 92.1886 105.737 92.2243 106.621C92.2403 106.907 92.3201 107.187 92.4579 107.438C92.5957 107.69 92.7879 107.908 93.0207 108.076L92.721 111.536L95.1473 111.812L94.5764 108.267ZM124.858 95.5739L82.3992 90.8478V99.0637L115.917 102.795L124.858 95.5739ZM72.7 97.9839L80.204 98.8199V91.9231L72.7 97.9839Z" fill="#FC6432"/>
</g>
<defs>
<filter id="filter0_dd_67_245" x="4.30137" y="-4.64431" width="191.962" height="209.254" filterUnits="userSpaceOnUse" color-interpolation-filters="sRGB">
<feFlood flood-opacity="0" result="BackgroundImageFix"/>
<feColorMatrix in="SourceAlpha" type="matrix" values="0 0 0 0 0 0 0 0 0 0 0 0 0 0 0 0 0 0 127 0" result="hardAlpha"/>
<feOffset/>
<feGaussianBlur stdDeviation="5.45"/>
<feComposite in2="hardAlpha" operator="out"/>
<feColorMatrix type="matrix" values="0 0 0 0 1 0 0 0 0 0.864699 0 0 0 0 0.820192 0 0 0 1 0"/>
<feBlend mode="normal" in2="BackgroundImageFix" result="effect1_dropShadow_67_245"/>
<feColorMatrix in="SourceAlpha" type="matrix" values="0 0 0 0 0 0 0 0 0 0 0 0 0 0 0 0 0 0 127 0" result="hardAlpha"/>
<feOffset/>
<feGaussianBlur stdDeviation="13.55"/>
<feComposite in2="hardAlpha" operator="out"/>
<feColorMatrix type="matrix" values="0 0 0 0 1 0 0 0 0 0.439261 0 0 0 0 0.254808 0 0 0 1 0"/>
<feBlend mode="normal" in2="effect1_dropShadow_67_245" result="effect2_dropShadow_67_245"/>
<feBlend mode="normal" in="SourceGraphic" in2="effect2_dropShadow_67_245" result="shape"/>
</filter>
<clipPath id="clip0_67_245">
<rect width="200" height="200" fill="white"/>
</clipPath>
</defs>
</svg>
