<svg width="609" height="842" viewBox="0 0 609 842" fill="none" xmlns="http://www.w3.org/2000/svg">
<path d="M-32 246.501C-32 248.71 -30.2091 250.501 -28 250.501L127.623 250.501C129.832 250.501 131.623 248.71 131.623 246.501L131.623 208.148C131.623 205.939 133.414 204.148 135.623 204.148L220.544 204.148C222.754 204.148 224.544 202.357 224.544 200.148L224.544 -87.4993C224.544 -89.7084 222.753 -91.4993 220.544 -91.4993H-27.9999C-30.2091 -91.4993 -31.9999 -89.7084 -31.9999 -87.4993L-32 246.501Z" fill="#765BFF"/>
<path d="M298.1 158.438C302.518 158.438 306.1 154.857 306.1 150.438V57.4688C306.1 57.4562 306.101 57.4432 306.101 57.4307V-87.5C306.101 -89.7091 304.31 -91.5 302.101 -91.5H29.1514C26.9422 -91.5 25.1514 -89.7091 25.1514 -87.5V57.4307C25.1514 61.8489 28.7331 65.4307 33.1514 65.4307H71.1592C73.3683 65.4307 75.1592 67.2215 75.1592 69.4307V150.438C75.1592 154.857 78.7409 158.438 83.1592 158.438H298.1Z" fill="#FC6432"/>
<rect x="88" y="754.5" width="273" height="273" rx="136.5" fill="#765BFF"/>
<path fill-rule="evenodd" clip-rule="evenodd" d="M247.727 868.317C247.228 867.46 247.299 866.388 247.87 865.531L271.704 830.168C272.346 829.168 272.417 827.953 271.847 826.953C271.276 825.881 270.205 825.31 269.064 825.31H259.787C258.788 825.31 257.789 825.81 257.147 826.739L229.317 868.174C228.603 869.246 227.462 869.818 226.177 869.818H222.681C221.396 869.818 220.254 869.175 219.541 868.174L191.854 826.667C191.283 825.738 190.213 825.238 189.214 825.238H179.937C178.795 825.238 177.654 825.881 177.154 826.953C176.583 828.024 176.726 829.239 177.297 830.168L201.13 865.603C201.701 866.388 201.773 867.46 201.273 868.317C200.774 869.246 199.917 869.746 198.918 869.746H162.454C160.67 869.746 159.314 871.175 159.314 872.89V880.605C159.314 882.391 160.742 883.749 162.454 883.749H286.546C288.33 883.749 289.686 882.32 289.686 880.605V872.89C289.686 871.246 288.473 869.961 286.903 869.746C286.76 869.746 286.618 869.746 286.475 869.746H250.082C249.083 869.746 248.156 869.246 247.727 868.317ZM219.612 913.825L191.782 955.261C191.212 956.19 190.141 956.69 189.142 956.69H179.866C178.724 956.69 177.654 956.047 177.083 955.047C176.512 954.047 176.583 952.761 177.225 951.832L200.988 916.469C201.559 915.611 201.63 914.611 201.13 913.683C200.631 912.825 199.775 912.254 198.776 912.254H162.454C160.742 912.254 159.314 910.896 159.314 909.11V901.395C159.314 899.68 160.67 898.251 162.454 898.251H286.261C286.261 898.251 286.475 898.251 286.546 898.251C288.259 898.251 289.686 899.609 289.686 901.395V909.11C289.686 910.825 288.33 912.254 286.546 912.254H250.154C249.083 912.254 248.227 912.754 247.799 913.683C247.299 914.611 247.371 915.611 247.941 916.397L271.775 951.832C272.346 952.761 272.489 953.975 271.918 955.047C271.347 956.119 270.277 956.762 269.135 956.762H259.858C258.788 956.762 257.86 956.262 257.289 955.404L229.46 913.968C228.746 912.897 227.604 912.325 226.32 912.325H222.823C221.539 912.325 220.397 912.968 219.684 913.968L219.612 913.825Z" fill="white"/>
<path d="M644.101 595.5C644.101 593.291 642.31 591.5 640.101 591.5L484.478 591.5C482.269 591.5 480.478 593.291 480.478 595.5L480.478 633.853C480.478 636.062 478.687 637.853 476.478 637.853L391.556 637.853C389.347 637.853 387.556 639.644 387.556 641.853L387.556 929.5C387.556 931.709 389.347 933.5 391.556 933.5H640.101C642.31 933.5 644.101 931.709 644.101 929.5L644.101 595.5Z" fill="#765BFF"/>
<path d="M314.001 683.562C309.583 683.563 306.001 687.144 306.001 691.562V784.532C306.001 784.545 306 784.558 306 784.57V929.501C306 931.71 307.791 933.501 310 933.501H582.949C585.158 933.501 586.949 931.71 586.949 929.501V784.57C586.949 780.152 583.367 776.57 578.949 776.57H540.941C538.732 776.57 536.941 774.779 536.941 772.57V691.562C536.941 687.144 533.36 683.562 528.941 683.562H314.001Z" fill="#FC6432"/>
<rect x="-112" y="683.5" width="273" height="273" rx="136.5" fill="#FC6432"/>
<path fill-rule="evenodd" clip-rule="evenodd" d="M47.7274 797.317C47.2279 796.46 47.2992 795.388 47.8701 794.531L71.7038 759.168C72.346 758.168 72.4174 756.953 71.8465 755.953C71.2756 754.881 70.2053 754.31 69.0635 754.31H59.7869C58.7879 754.31 57.7889 754.81 57.1467 755.739L29.317 797.174C28.6034 798.246 27.4616 798.818 26.1772 798.818H22.6806C21.3962 798.818 20.2544 798.175 19.5409 797.174L-8.14616 755.667C-8.71703 754.738 -9.7874 754.238 -10.7864 754.238H-20.063C-21.2047 754.238 -22.3465 754.881 -22.846 755.953C-23.4168 757.024 -23.2741 758.239 -22.7033 759.168L1.13042 794.603C1.70129 795.388 1.77264 796.46 1.27314 797.317C0.773628 798.246 -0.0826721 798.746 -1.08169 798.746H-37.5458C-39.3297 798.746 -40.6855 800.175 -40.6855 801.89V809.605C-40.6855 811.391 -39.2584 812.749 -37.5458 812.749H86.5463C88.3303 812.749 89.6861 811.32 89.6861 809.605V801.89C89.6861 800.246 88.473 798.961 86.9031 798.746C86.7604 798.746 86.6177 798.746 86.4749 798.746H50.0822C49.0832 798.746 48.1555 798.246 47.7274 797.317ZM19.6122 842.825L-8.21752 884.261C-8.78838 885.19 -9.85876 885.69 -10.8578 885.69H-20.1344C-21.2761 885.69 -22.3465 885.047 -22.9173 884.047C-23.4882 883.047 -23.4168 881.761 -22.7746 880.832L0.987705 845.469C1.55857 844.611 1.62993 843.611 1.13042 842.683C0.630913 841.825 -0.225388 841.254 -1.2244 841.254H-37.5458C-39.2584 841.254 -40.6855 839.896 -40.6855 838.11V830.395C-40.6855 828.68 -39.3297 827.251 -37.5458 827.251H86.2609C86.2609 827.251 86.475 827.251 86.5463 827.251C88.2589 827.251 89.6861 828.609 89.6861 830.395V838.11C89.6861 839.825 88.3303 841.254 86.5463 841.254H50.1536C49.0832 841.254 48.2269 841.754 47.7987 842.683C47.2992 843.611 47.3706 844.611 47.9415 845.397L71.7751 880.832C72.346 881.761 72.4887 882.975 71.9179 884.047C71.347 885.119 70.2766 885.762 69.1349 885.762H59.8583C58.7879 885.762 57.8603 885.262 57.2894 884.404L29.4597 842.968C28.7461 841.897 27.6044 841.325 26.3199 841.325H22.8233C21.5389 841.325 20.3972 841.968 19.6836 842.968L19.6122 842.825Z" fill="white"/>
</svg>
