<svg width="200" height="200" viewBox="0 0 200 200" fill="none" xmlns="http://www.w3.org/2000/svg">
<g clip-path="url(#clip0_73_225)">
<g filter="url(#filter0_dd_73_225)">
<path d="M99.4014 24.6602C99.957 24.3876 100.607 24.3875 101.163 24.6602L133.97 40.7598L151.225 50.9717L155.556 53.5342L159.886 56.0967L166.182 59.8223C166.894 60.2437 167.272 61.0601 167.135 61.876L154.868 134.586C154.783 135.093 154.505 135.549 154.093 135.856L101.479 175.112C100.769 175.642 99.7954 175.642 99.0859 175.112L46.4717 135.856C46.0592 135.549 45.7809 135.093 45.6953 134.586L33.4287 61.876C33.2911 61.0601 33.6707 60.2437 34.3828 59.8223L40.6787 56.0967L49.3389 50.9717L66.5879 40.7627L99.4014 24.6602Z" stroke="#FC6432" stroke-width="4" shape-rendering="crispEdges"/>
</g>
<path d="M98.6826 33.7568C99.5138 33.3506 100.486 33.3506 101.317 33.7568L129.519 47.542L144.492 56.3682L148.242 58.5781L151.992 60.7891L157.12 63.8115C158.191 64.4432 158.761 65.6703 158.554 66.8965L148.032 129.019C147.903 129.781 147.485 130.465 146.864 130.926L101.789 164.424C100.727 165.213 99.2733 165.213 98.2109 164.424L53.1357 130.926C52.5152 130.465 52.0969 129.781 51.9678 129.019L41.4463 66.8965C41.2386 65.6703 41.8086 64.4432 42.8799 63.8115L48.0078 60.7891L51.7578 58.5781L55.5078 56.3682L70.4805 47.542L98.6826 33.7568Z" fill="#FFF0EB" stroke="#FD9D41" stroke-width="2"/>
<path d="M66.8182 93.6876L73.6205 94.0189C74.0225 90.3933 75.1737 86.8905 77.0014 83.7319C78.8291 80.5732 81.2934 77.8275 84.2386 75.6684L80.5223 69.9711C79.6264 68.3812 80.0909 66.3606 81.75 65.4332C83.4091 64.5388 85.3668 65.0688 86.2959 66.6588L89.3818 72.6873C92.736 71.2474 96.3488 70.5047 100 70.5047C103.651 70.5047 107.264 71.2474 110.618 72.6873L113.704 66.6588C114.633 65.0688 116.591 64.5388 118.25 65.4332C119.909 66.3606 120.374 68.3812 119.478 69.9711L115.761 75.6684C118.707 77.8275 121.171 80.5732 122.999 83.7319C124.826 86.8905 125.978 90.3933 126.38 94.0189L133.182 93.6876C134.062 93.6876 134.906 94.0366 135.528 94.6578C136.15 95.279 136.5 96.1215 136.5 97C136.5 97.8785 136.15 98.721 135.528 99.3422C134.906 99.9634 134.062 100.312 133.182 100.312L126.38 99.9811C125.978 103.607 124.826 107.11 122.999 110.268C121.171 113.427 118.707 116.172 115.761 118.332L119.478 124.029C120.374 125.619 119.909 127.639 118.25 128.567C116.591 129.461 114.633 128.931 113.704 127.341L110.618 121.313C107.264 122.753 103.651 123.495 100 123.495C96.3488 123.495 92.736 122.753 89.3818 121.313L86.2959 127.341C85.3668 128.931 83.4091 129.461 81.75 128.567C80.0909 127.639 79.6264 125.619 80.5223 124.029L84.2386 118.332C81.2934 116.172 78.8291 113.427 77.0014 110.268C75.1737 107.11 74.0225 103.607 73.6205 99.9811L66.8182 100.312C65.9381 100.312 65.0942 99.9634 64.4719 99.3422C63.8496 98.721 63.5 97.8785 63.5 97C63.5 96.1215 63.8496 95.279 64.4719 94.6578C65.0942 94.0366 65.9381 93.6876 66.8182 93.6876ZM90.2777 94.847C90.7091 92.8264 91.8041 91.0377 93.3636 89.6797L87.8555 81.2663C83.6943 84.4575 80.9635 89.1596 80.2568 94.3501L90.2777 94.847ZM100 87.0629C101.062 87.0629 102.057 87.2285 102.986 87.5266L107.565 78.6164C105.243 77.6558 102.688 77.1258 100 77.1258C97.3123 77.1258 94.7573 77.6558 92.4345 78.6164L97.0136 87.5266C97.9427 87.2285 98.9382 87.0629 100 87.0629ZM109.722 94.847L119.743 94.3501C119.037 89.1596 116.306 84.4575 112.145 81.2663L106.636 89.6797C108.196 91.0377 109.291 92.8264 109.722 94.847ZM109.722 99.153C109.291 101.174 108.196 102.962 106.636 104.32L112.145 112.734C116.306 109.542 119.037 104.84 119.743 99.6499L109.722 99.153ZM100 106.937C98.9382 106.937 97.9427 106.771 96.9805 106.473L92.4345 115.384C94.7573 116.344 97.3123 116.874 100 116.874C102.688 116.874 105.243 116.344 107.565 115.384L103.02 106.473C102.057 106.771 101.062 106.937 100 106.937ZM90.2777 99.153L80.2568 99.6499C80.9868 104.95 83.7741 109.62 87.8555 112.734L93.3636 104.32C91.8041 102.962 90.7091 101.174 90.2777 99.153Z" fill="#FC6432"/>
</g>
<defs>
<filter id="filter0_dd_73_225" x="4.30137" y="-4.64431" width="191.962" height="209.254" filterUnits="userSpaceOnUse" color-interpolation-filters="sRGB">
<feFlood flood-opacity="0" result="BackgroundImageFix"/>
<feColorMatrix in="SourceAlpha" type="matrix" values="0 0 0 0 0 0 0 0 0 0 0 0 0 0 0 0 0 0 127 0" result="hardAlpha"/>
<feOffset/>
<feGaussianBlur stdDeviation="5.45"/>
<feComposite in2="hardAlpha" operator="out"/>
<feColorMatrix type="matrix" values="0 0 0 0 1 0 0 0 0 0.864699 0 0 0 0 0.820192 0 0 0 1 0"/>
<feBlend mode="normal" in2="BackgroundImageFix" result="effect1_dropShadow_73_225"/>
<feColorMatrix in="SourceAlpha" type="matrix" values="0 0 0 0 0 0 0 0 0 0 0 0 0 0 0 0 0 0 127 0" result="hardAlpha"/>
<feOffset/>
<feGaussianBlur stdDeviation="13.55"/>
<feComposite in2="hardAlpha" operator="out"/>
<feColorMatrix type="matrix" values="0 0 0 0 1 0 0 0 0 0.439261 0 0 0 0 0.254808 0 0 0 1 0"/>
<feBlend mode="normal" in2="effect1_dropShadow_73_225" result="effect2_dropShadow_73_225"/>
<feBlend mode="normal" in="SourceGraphic" in2="effect2_dropShadow_73_225" result="shape"/>
</filter>
<clipPath id="clip0_73_225">
<rect width="200" height="200" fill="white"/>
</clipPath>
</defs>
</svg>
