<svg width="226" height="225" viewBox="0 0 226 225" fill="none" xmlns="http://www.w3.org/2000/svg">
<rect width="226" height="225" rx="22.2857" fill="#FC6432" style="fill:#FC6432;fill:color(display-p3 0.9882 0.3922 0.1961);fill-opacity:1;"/>
<path fill-rule="evenodd" clip-rule="evenodd" d="M132.229 93.8055C131.815 93.099 131.874 92.2158 132.347 91.5092L152.077 62.3635C152.609 61.5392 152.668 60.5382 152.196 59.7139C151.723 58.8307 150.837 58.3597 149.892 58.3597H142.212C141.385 58.3597 140.558 58.7718 140.026 59.5373L116.988 93.6878C116.397 94.571 115.452 95.042 114.389 95.042H111.494C110.431 95.042 109.486 94.5121 108.895 93.6878L85.9745 59.4784C85.5019 58.7129 84.6158 58.3008 83.7888 58.3008H76.1093C75.1641 58.3008 74.2189 58.8307 73.8054 59.7139C73.3328 60.5971 73.451 61.5981 73.9235 62.3635L93.654 91.5681C94.1266 92.2158 94.1856 93.099 93.7721 93.8055C93.3586 94.571 92.6497 94.9831 91.8227 94.9831H61.6363C60.1595 94.9831 59.0371 96.1607 59.0371 97.5739V103.933C59.0371 105.405 60.2186 106.524 61.6363 106.524H164.365C165.841 106.524 166.964 105.346 166.964 103.933V97.5739C166.964 96.2196 165.96 95.1598 164.66 94.9831C164.542 94.9831 164.424 94.9831 164.306 94.9831H134.178C133.351 94.9831 132.583 94.571 132.229 93.8055ZM108.954 131.312L85.9154 165.463C85.4428 166.228 84.5567 166.64 83.7297 166.64H76.0502C75.105 166.64 74.2189 166.11 73.7463 165.286C73.2737 164.462 73.3328 163.402 73.8645 162.636L93.5358 133.491C94.0084 132.784 94.0675 131.96 93.654 131.194C93.2405 130.488 92.5316 130.017 91.7046 130.017H61.6363C60.2186 130.017 59.0371 128.898 59.0371 127.426V121.067C59.0371 119.654 60.1595 118.476 61.6363 118.476H164.128C164.128 118.476 164.306 118.476 164.365 118.476C165.782 118.476 166.964 119.595 166.964 121.067V127.426C166.964 128.839 165.841 130.017 164.365 130.017H134.237C133.351 130.017 132.642 130.429 132.288 131.194C131.874 131.96 131.933 132.784 132.406 133.432L152.136 162.636C152.609 163.402 152.727 164.403 152.255 165.286C151.782 166.169 150.896 166.699 149.951 166.699H142.271C141.385 166.699 140.617 166.287 140.145 165.58L117.106 131.43C116.515 130.547 115.57 130.076 114.507 130.076H111.612C110.549 130.076 109.604 130.606 109.013 131.43L108.954 131.312Z" fill="white" style="fill:white;fill-opacity:1;"/>
</svg>
