<svg width="307" height="251" viewBox="0 0 307 251" fill="none" xmlns="http://www.w3.org/2000/svg">
<path d="M-32 246.501C-32 248.71 -30.2091 250.501 -28 250.501L127.623 250.501C129.832 250.501 131.623 248.71 131.623 246.501L131.623 208.148C131.623 205.939 133.414 204.148 135.623 204.148L220.544 204.148C222.754 204.148 224.544 202.357 224.544 200.148L224.544 -87.4993C224.544 -89.7084 222.753 -91.4993 220.544 -91.4993H-27.9999C-30.2091 -91.4993 -31.9999 -89.7084 -31.9999 -87.4993L-32 246.501Z" fill="#765BFF"/>
<path d="M298.1 158.438C302.518 158.438 306.1 154.857 306.1 150.438V57.4688C306.1 57.4562 306.101 57.4432 306.101 57.4307V-87.5C306.101 -89.7091 304.31 -91.5 302.101 -91.5H29.1514C26.9422 -91.5 25.1514 -89.7091 25.1514 -87.5V57.4307C25.1514 61.8489 28.7331 65.4307 33.1514 65.4307H71.1592C73.3683 65.4307 75.1592 67.2215 75.1592 69.4307V150.438C75.1592 154.857 78.7409 158.438 83.1592 158.438H298.1Z" fill="#FC6432"/>
</svg>
