<svg width="381" height="363" viewBox="0 0 381 363" fill="none" xmlns="http://www.w3.org/2000/svg">
<line y1="-0.5" x2="362.495" y2="-0.5" transform="matrix(-5.86805e-08 -1 -1 3.25608e-08 304 362.495)" stroke="url(#paint0_linear_6_10523)"/>
<line y1="-0.5" x2="362.495" y2="-0.5" transform="matrix(-5.86805e-08 -1 -1 3.25608e-08 228 362.495)" stroke="url(#paint1_linear_6_10523)"/>
<line y1="-0.5" x2="362.495" y2="-0.5" transform="matrix(-5.86805e-08 -1 -1 3.25608e-08 380 362.495)" stroke="url(#paint2_linear_6_10523)"/>
<line y1="-0.5" x2="362.495" y2="-0.5" transform="matrix(-5.86805e-08 -1 -1 3.25608e-08 76 362.495)" stroke="url(#paint3_linear_6_10523)"/>
<line y1="-0.5" x2="362.495" y2="-0.5" transform="matrix(-5.86805e-08 -1 -1 3.25608e-08 152 362.495)" stroke="url(#paint4_linear_6_10523)"/>
<line y1="-0.5" x2="362.495" y2="-0.5" transform="matrix(-5.86805e-08 -1 -1 3.25608e-08 0 362.495)" stroke="url(#paint5_linear_6_10523)"/>
<defs>
<linearGradient id="paint0_linear_6_10523" x1="349.654" y1="-3.28505e-05" x2="162.269" y2="-2.59827e-05" gradientUnits="userSpaceOnUse">
<stop stop-color="#765BFF"/>
<stop offset="1" stop-color="#F3F2F0" stop-opacity="0"/>
</linearGradient>
<linearGradient id="paint1_linear_6_10523" x1="349.654" y1="0" x2="5.9263" y2="0" gradientUnits="userSpaceOnUse">
<stop stop-color="#765BFF"/>
<stop offset="1" stop-color="#F3F2F0" stop-opacity="0"/>
</linearGradient>
<linearGradient id="paint2_linear_6_10523" x1="349.654" y1="0" x2="5.9263" y2="0" gradientUnits="userSpaceOnUse">
<stop stop-color="#765BFF"/>
<stop offset="0.458333" stop-color="#765BFF"/>
<stop offset="1" stop-color="#F3F2F0" stop-opacity="0"/>
</linearGradient>
<linearGradient id="paint3_linear_6_10523" x1="349.654" y1="0" x2="5.9263" y2="0" gradientUnits="userSpaceOnUse">
<stop offset="0.822917" stop-color="#765BFF"/>
<stop offset="1" stop-color="#F3F2F0" stop-opacity="0"/>
</linearGradient>
<linearGradient id="paint4_linear_6_10523" x1="349.654" y1="0" x2="5.9263" y2="0" gradientUnits="userSpaceOnUse">
<stop offset="0.572917" stop-color="#765BFF"/>
<stop offset="1" stop-color="#F3F2F0" stop-opacity="0"/>
</linearGradient>
<linearGradient id="paint5_linear_6_10523" x1="349.654" y1="0" x2="5.9263" y2="0" gradientUnits="userSpaceOnUse">
<stop stop-color="#765BFF"/>
<stop offset="0.489583" stop-color="#F3F2F0" stop-opacity="0"/>
</linearGradient>
</defs>
</svg>
