<svg width="200" height="200" viewBox="0 0 200 200" fill="none" xmlns="http://www.w3.org/2000/svg">
<g clip-path="url(#clip0_20_1187)">
<g filter="url(#filter0_dd_20_1187)">
<path d="M99.4014 24.6602C99.957 24.3876 100.607 24.3875 101.163 24.6602L133.97 40.7598L151.225 50.9717L155.556 53.5342L159.886 56.0967L166.182 59.8223C166.894 60.2437 167.272 61.0601 167.135 61.876L154.868 134.586C154.783 135.093 154.505 135.549 154.093 135.856L101.479 175.112C100.769 175.642 99.7954 175.642 99.0859 175.112L46.4717 135.856C46.0592 135.549 45.7809 135.093 45.6953 134.586L33.4287 61.876C33.2911 61.06 33.6707 60.2437 34.3828 59.8223L40.6787 56.0967L49.3389 50.9717L66.5879 40.7627L99.4014 24.6602Z" stroke="#FC6432" stroke-width="4" shape-rendering="crispEdges"/>
</g>
<path d="M98.6826 33.7568C99.5138 33.3506 100.486 33.3506 101.317 33.7568L129.519 47.542L144.492 56.3682L148.242 58.5781L151.992 60.7891L157.12 63.8115C158.191 64.4432 158.761 65.6703 158.554 66.8965L148.032 129.019C147.903 129.781 147.485 130.465 146.864 130.926L101.789 164.424C100.727 165.213 99.2733 165.213 98.2109 164.424L53.1357 130.926C52.5152 130.465 52.0969 129.781 51.9678 129.019L41.4463 66.8965C41.2386 65.6703 41.8086 64.4432 42.8799 63.8115L48.0078 60.7891L51.7578 58.5781L55.5078 56.3682L70.4805 47.542L98.6826 33.7568Z" fill="#FFF0EB" stroke="#FD9D41" stroke-width="2"/>
<path d="M128.149 66C118.745 72.4882 100.828 71.7098 97.4005 83.4595C89.4766 75.2281 77.1253 72.6697 66.0599 69.9104C67.0004 89.2738 76.3371 90.4339 93.7673 96.9916C97.181 100.581 98.0558 103.942 96.5395 108.504C103.221 109.214 106.835 110.657 111.91 112.366C111.808 102.389 108.29 97.2031 101.037 88.0009C102.629 88.5901 107.513 93.1541 109.183 96.1591C124.937 90.254 130.44 80.5582 128.149 66ZM88.8672 110.375C80.1003 110.342 72.4487 113.088 66.0572 120.707C90.1125 113.908 108.1 118.868 134 121.806C116.876 116.411 101.68 110.424 88.8672 110.375ZM102.983 121.211C88.6891 121.246 73.2747 123.819 66 130C90.1888 126.296 117.372 126.046 133.785 129.309C133.944 124.39 119.183 121.171 102.983 121.211Z" fill="#FC6432"/>
</g>
<defs>
<filter id="filter0_dd_20_1187" x="4.30137" y="-4.64431" width="191.962" height="209.254" filterUnits="userSpaceOnUse" color-interpolation-filters="sRGB">
<feFlood flood-opacity="0" result="BackgroundImageFix"/>
<feColorMatrix in="SourceAlpha" type="matrix" values="0 0 0 0 0 0 0 0 0 0 0 0 0 0 0 0 0 0 127 0" result="hardAlpha"/>
<feOffset/>
<feGaussianBlur stdDeviation="5.45"/>
<feComposite in2="hardAlpha" operator="out"/>
<feColorMatrix type="matrix" values="0 0 0 0 1 0 0 0 0 0.864699 0 0 0 0 0.820192 0 0 0 1 0"/>
<feBlend mode="normal" in2="BackgroundImageFix" result="effect1_dropShadow_20_1187"/>
<feColorMatrix in="SourceAlpha" type="matrix" values="0 0 0 0 0 0 0 0 0 0 0 0 0 0 0 0 0 0 127 0" result="hardAlpha"/>
<feOffset/>
<feGaussianBlur stdDeviation="13.55"/>
<feComposite in2="hardAlpha" operator="out"/>
<feColorMatrix type="matrix" values="0 0 0 0 1 0 0 0 0 0.439261 0 0 0 0 0.254808 0 0 0 1 0"/>
<feBlend mode="normal" in2="effect1_dropShadow_20_1187" result="effect2_dropShadow_20_1187"/>
<feBlend mode="normal" in="SourceGraphic" in2="effect2_dropShadow_20_1187" result="shape"/>
</filter>
<clipPath id="clip0_20_1187">
<rect width="200" height="200" fill="white"/>
</clipPath>
</defs>
</svg>
